Patient4_TMGait_0pt8_01_right_07_EMG.mot
version=1
nRows=27
nColumns=33
inDegrees=no
endheader
time	1LAddLong	2LGlutMax	3LGlutMed	4LIliopsoas	5LSemiMemb	6LBicFemLong	7LRecFem	8LVastMed	9LVastLat	10LGasMed	11LTibAnt	12lTibPost	13LPeroneusLong	14LSol	15LExtDigLong	16LFlexDigLong	17RAddLong	18RGlutMax	19RGlutMed	20RIliopsoas	21RSemiMemb	22RBicFemLong	23RRecFem	24RVastMed	25RVastLat	26RGasMed	27RTibAnt	28RTibPost	29RPeroneusLong	30RSol	31RExtDigLong	32RFlexDigLong
7.58	0.005035	-0.28	-0.11322	0.002594	0.025635	0.081329	0.055389	0.026398	0.006866	0.11032	0.004272	0.24109	0.17822	-0.33127	-0.056458	-0.054321	-0.001068	0.21088	0.74143	0.081024	0.32501	0.22064	0.27557	-0.01358	-0.033569	0.009613	0.088654	-0.006256	-0.20935	-0.15595	0.001373	-0.024261
7.581	-0.014954	-0.27634	-0.009155	-0.015869	0.005798	-0.014191	0.098419	0.021515	0.050507	0.021973	0.014038	-0.24826	0.10269	-0.3656	-0.040283	-0.053711	-0.007019	0.16937	0.59616	-0.021973	0.23956	0.21774	0.26352	-0.027008	-0.033264	0.003662	0.44418	-0.005798	-0.10437	-0.21454	0.002136	-0.025482
7.582	-0.040588	-0.25757	0.084381	-0.003357	-0.004578	0.014191	0.11643	0.031586	0.064545	-0.00946	0.046692	-0.029144	0.060272	-0.31174	-0.018311	-0.10788	0.000916	0.15167	1.1975	-0.087585	0.17014	0.21576	0.18997	-0.018005	-0.037384	-0.003052	0.271	-0.005188	-0.31662	-0.17334	-0.000153	-0.022278
7.583	0.005035	-0.2742	0.10162	-0.016479	-0.057068	0.066528	0.12787	0.033722	0.07843	-0.090485	0.017548	-0.005188	0.44784	-0.049438	0.008545	-0.047913	-0.002289	0.10712	1.4452	0.011597	0.12116	0.22049	0.1828	-0.12405	-0.050964	-0.012207	-0.064392	-0.009155	-0.12375	-0.023956	-0.00061	-0.018616
7.584	0.000916	-0.23438	0.033112	0.026093	-0.040436	0.057068	0.12405	0.000763	0.10193	-0.17197	-0.002289	0.03891	0.34073	0.20844	0.01358	0.061035	0.009918	0.093842	1.0544	0.045929	0.091858	0.20859	0.14191	-0.077972	-0.041809	-0.024872	0.19989	-0.008545	0.18417	0.030365	0.001068	-0.014038
7.585	0.028687	-0.23499	-0.012207	0.031586	0.032043	-0.000916	0.13992	-0.026398	0.048676	-0.13947	0.023956	0.046387	0.17151	0.7251	0.026245	0.097198	-0.006714	0.026855	0.5748	-0.056305	0.0914	0.22751	0.098572	-0.098877	-0.025787	-0.017853	0.098419	-0.010376	0.159	-0.027924	-0.001373	-0.007172
7.586	0.005646	-0.26566	0.025024	0.014954	0.050354	-0.031281	0.10269	-0.034943	-0.021973	-0.096893	0.027313	-0.33859	0.551	1.2617	0.068207	0.18036	0.013275	0.028076	0.7872	-0.087585	0.089264	0.23819	0.064697	-0.051727	-0.012207	-0.025482	-0.030975	-0.010529	-0.050812	0.083008	-0.003662	-0.009613
7.587	0.01358	-0.26764	0.035706	0.007629	0.04364	-0.027466	0.088654	-0.021515	0.02594	0.1297	0.012665	-0.036316	0.74127	1.2697	0.083466	0.019989	0.03067	-0.049438	0.76187	0.02121	0.10544	0.23865	0.080414	-0.0354	-0.015717	-0.0354	-0.34698	-0.00885	-0.177	0.11612	0.002441	-0.012817
7.588	0.012817	-0.27679	0.007019	-0.000916	0.01709	0.063019	0.074921	-0.011749	0.058899	0.30365	0.041504	0.53146	-0.13214	0.62851	0.021362	-0.1004	0.022888	-0.06012	0.65887	0.044708	0.10162	0.23483	0.15305	-0.00946	-0.010986	-0.031433	-0.49896	-0.012665	-0.19134	-0.018768	0.001526	-0.018463
7.589	0.002747	-0.30243	-0.068207	0.00885	-0.001373	0.22568	0.15137	-0.00946	0.017395	0.30304	0.039063	0.009613	-0.034485	0.44662	-0.027466	0.2713	0.016174	-0.071869	0.66574	0.076294	0.091858	0.23575	0.17364	0.001984	-0.030975	-0.033417	-0.26932	-0.010071	-0.18234	-0.1265	0.001373	-0.015259
7.59	0.004425	-0.27298	-0.14465	0.00061	0.006409	0.34393	0.17822	-0.007019	0.025177	0.12177	-0.032349	-0.03418	0.22629	-0.057373	-0.09491	0.12955	0.004578	-0.051575	0.55817	0.23743	0.084991	0.23148	0.10193	-0.047302	-0.03891	-0.027466	0.16022	-0.010529	-0.11414	-0.13199	0.000458	-0.015717
7.591	0.011139	-0.31479	-0.10254	0.009766	-0.000916	0.36697	0.17883	-0.004883	0.042572	-0.065765	-0.064545	-0.2269	-0.52368	-0.075989	-0.060425	-0.12054	-0.009308	-0.057068	0.62241	0.31845	0.066986	0.21759	0.079041	-0.019531	-0.033722	-0.025024	0.20691	-0.00946	-0.011139	-0.089417	-0.000763	-0.01709
7.592	0.000763	-0.24292	-0.12009	-0.00824	0.007477	0.31555	0.23071	-0.006561	0.040283	0.004272	0.005951	-0.12009	-0.032654	-0.32196	-0.18219	-0.13733	-0.028534	-0.053558	0.70038	0.22446	0.057068	0.21744	0.068359	-0.075531	-0.023651	-0.031738	0.20493	-0.006866	-0.027161	-0.067596	0.000763	-0.019226
7.593	0.011749	-0.2092	-0.11963	0.012512	-0.003815	0.27359	0.22598	-0.003204	0.041962	-0.024109	0.014191	0.27771	0.21103	-0.82489	-0.099182	-0.010376	-0.042267	-0.076141	0.81116	0.07782	0.043945	0.22995	0.040588	-0.058289	-0.028229	-0.027313	0.3894	-0.010223	-0.038452	-0.042572	0.004578	-0.024414
7.594	0.00412	-0.12238	0.06134	0.005188	-0.028076	0.17364	0.21484	0.001984	0.029602	-0.033722	0.023956	0.002747	-0.13001	-0.98633	0.000305	0.069885	0.033722	-0.046539	0.80231	-0.00412	0.026093	0.18707	0.061493	-0.08255	-0.03479	-0.016632	0.19379	-0.010681	0.020142	-0.027313	0.002899	-0.024261
7.595	0.003662	-0.17197	0.086517	-0.005341	-0.086365	-0.27023	0.21347	0.005188	0.010834	-0.05127	-0.014954	-0.021362	-0.11002	-0.51086	-0.031891	0.016022	0.13306	-0.075989	0.8815	0.010223	0.003967	0.17197	0.04364	-0.1207	-0.04303	-0.003967	-0.087433	-0.009918	0.098419	0.00885	0.002289	-0.025482
7.596	0.005493	-0.15747	0.10376	0.001221	-0.086365	-0.41016	0.22629	-0.004578	0.013428	0.005798	0.006561	-0.043945	0.070648	-0.067444	-0.017548	-0.018463	0.12436	-0.090179	1.0063	0.039825	-0.014648	0.18494	0.042877	-0.14572	-0.043945	0.022583	-0.30807	-0.003204	0.23605	-0.010681	-0.005188	-0.02243
7.597	-0.001526	-0.14008	-0.018158	0.011139	-0.081482	-0.000458	0.16205	-0.007935	0.042419	-0.027161	-0.00351	0.018768	0.22842	-0.20325	0.000305	-0.022278	0.067902	-0.10178	1.0115	0.020142	-0.018005	0.19104	0.034637	-0.15564	-0.044403	0.048065	-0.17792	-0.006256	0.23972	-0.005646	0.004578	-0.024567
7.598	0.006409	-0.15182	-0.09903	-0.005035	0.011139	0.010223	0.18723	-0.005951	0.039368	-0.085754	0.009155	0.023346	0.33417	-0.33005	0.085602	-0.006714	0.006409	-0.16144	1.0025	-0.00412	-0.019836	0.17868	0.015106	-0.16663	-0.028381	0.067749	0.12711	-0.002899	-0.11078	0.00473	0.001831	-0.031891
7.599	0.0177	-0.14191	-0.093842	-0.005798	0.071106	0.031738	0.1796	-0.015106	0.060577	-0.11124	0.001984	0.022125	-0.015869	-0.54749	0.036469	0.008087	-0.046387	-0.16632	0.699	0.030518	-0.032196	0.19867	0.006409	-0.16647	-0.041504	0.074921	0.34683	-0.00351	-0.2655	0.035248	-0.001068	-0.028839
7.6	0.014343	-0.13534	-0.02243	-0.004272	0.014801	-0.067596	0.21057	-0.013275	0.032501	-0.052795	0.007629	0.006561	-0.12375	-0.47989	-0.091248	0.016174	-0.090485	-0.15243	0.66055	0.030365	-0.04364	0.21668	0.011139	-0.16983	-0.029449	0.09613	0.48431	-0.007477	-0.52231	0.07843	0.001984	-0.029755
7.601	0.015259	-0.11688	0.014343	-0.012665	-0.007324	-0.11993	0.21072	-0.004425	0.019379	-0.023346	0.000763	-0.007019	-0.084534	-0.24902	-0.11108	0.010681	-0.08255	-0.12344	0.7692	-0.003967	-0.045319	0.23438	0.034027	-0.21774	-0.023041	0.10666	0.14191	-0.007935	-0.3717	0.050964	0.001068	-0.010834
7.602	0.015564	-0.14832	-0.011597	0.010223	-0.029297	-0.16953	0.20905	-0.005951	0.027313	-0.001678	0.015869	-0.007629	-0.19134	0.13977	-0.029602	0.004272	-0.083313	-0.12329	0.72449	-0.002899	-0.029449	0.24948	0.085297	-0.17609	-0.015411	0.10162	-0.16663	-0.009308	0.27741	0.033264	0.002747	-0.011902
7.603	0.020294	-0.15182	0.007019	0.013123	0.038147	-0.25116	0.22079	-0.00351	0.016174	-0.055847	-0.021515	-0.005951	-0.048981	0.25894	0.015717	0.005188	-0.058746	-0.12268	0.62454	0.046539	-0.00351	0.27329	0.053101	-0.12466	0.001373	0.089569	-0.30319	-0.005341	1.0844	-0.011139	-0.002747	-0.017242
7.604	0.015259	-0.17685	-0.022125	0.006256	0.04425	-0.27725	0.24262	0.000916	0.000153	-0.052795	0.016174	-0.003357	-0.48752	0.12238	0.00061	-0.000916	-0.042877	-0.10239	0.66177	0.14099	0.008545	0.24109	0.084686	-0.092468	0.009613	0.076141	-0.3154	-0.00473	0.54352	-0.022888	0.002899	-0.017395
7.605	0.014038	-0.14938	-0.078735	0.009766	0.043945	-0.3122	0.26688	-0.002441	-0.00351	-0.040283	-0.006104	0.000305	0.013275	0.090942	-0.009613	0.000763	-0.035248	-0.085754	0.87662	0.17853	0.004272	0.22385	0.037994	-0.080719	0.002441	0.058136	-0.17853	-0.007019	0.60486	0.024109	0.00412	-0.02594
7.606	0.019989	-0.12238	-0.12543	0.018005	0.041809	-0.36224	0.2562	0.000763	0.006714	-0.019379	0.016174	0.002594	0.072021	0.062561	0.018311	-0.013123	-0.030518	-0.14114	0.82306	0.19058	0.006714	0.22705	0.018768	-0.053101	-0.009613	0.042725	-0.16327	-0.005035	0.94681	-0.059814	0.000305	-0.03479
